<svg width="323" height="168" viewBox="0 0 323 168" fill="none" xmlns="http://www.w3.org/2000/svg">
<g clip-path="url(#clip0_4331_6684)">
<rect x="1.17139" y="1" width="321" height="166" fill="#F1F3F4" stroke="#BDC1C6" stroke-linejoin="round"/>
<rect x="46.1714" y="38" width="268.5" height="120" rx="4" fill="white" stroke="#3C4043"/>
<path d="M46.1714 14.1655C46.1714 13.4786 46.7282 12.9218 47.4151 12.9218H48.9277C49.6145 12.9218 50.1714 13.4786 50.1714 14.1655V26.8816H47.4151C46.7282 26.8816 46.1714 26.3247 46.1714 25.6379V14.1655Z" fill="white" stroke="#3C4043"/>
<path d="M62.1533 14.1655C62.1533 13.4786 62.7101 12.9218 63.397 12.9218H64.9471C65.634 12.9218 66.1908 13.4786 66.1908 14.1655V25.6379C66.1908 26.3247 65.634 26.8816 64.9471 26.8816H62.1533V14.1655Z" fill="white" stroke="#3C4043"/>
<path fill-rule="evenodd" clip-rule="evenodd" d="M46.5245 13.2841C46.1069 13.8189 46.1908 14.595 46.7129 15.0283L56.2661 22.9552L56.2662 22.9554L56.2662 22.9553L56.2663 22.9554L56.2664 22.9552L65.8195 15.0283C66.3417 14.595 66.4255 13.8189 66.008 13.2841L65.4264 12.5391C64.9966 11.9887 64.2026 11.9053 63.6679 12.3544L56.2662 18.5714L48.8646 12.3544C48.3299 11.9053 47.5358 11.9887 47.1061 12.5391L46.5245 13.2841Z" fill="white"/>
<path d="M46.7129 15.0283L47.0322 14.6435L46.7129 15.0283ZM46.5245 13.2841L46.1304 12.9764L46.1304 12.9764L46.5245 13.2841ZM56.2661 22.9552L56.6589 22.6459L56.6261 22.6042L56.5853 22.5704L56.2661 22.9552ZM56.2662 22.9554L55.8734 23.2647L56.1914 23.6686L56.5863 23.3395L56.2662 22.9554ZM56.2662 22.9553L56.5863 22.5712L56.2662 22.3045L55.9461 22.5712L56.2662 22.9553ZM56.2663 22.9554L55.9462 23.3395L56.3411 23.6686L56.6591 23.2647L56.2663 22.9554ZM56.2664 22.9552L55.9471 22.5704L55.9063 22.6042L55.8736 22.6459L56.2664 22.9552ZM65.8195 15.0283L65.5003 14.6435V14.6435L65.8195 15.0283ZM66.008 13.2841L65.6139 13.5918V13.5918L66.008 13.2841ZM65.4264 12.5391L65.8205 12.2314V12.2314L65.4264 12.5391ZM63.6679 12.3544L63.3463 11.9715V11.9715L63.6679 12.3544ZM56.2662 18.5714L55.9446 18.9543L56.2662 19.2244L56.5878 18.9543L56.2662 18.5714ZM48.8646 12.3544L49.1862 11.9715V11.9715L48.8646 12.3544ZM47.1061 12.5391L47.5002 12.8468L47.1061 12.5391ZM47.0322 14.6435C46.7181 14.3829 46.6674 13.9136 46.9186 13.5918L46.1304 12.9764C45.5465 13.7243 45.6634 14.8071 46.3936 15.4131L47.0322 14.6435ZM56.5853 22.5704L47.0322 14.6435L46.3936 15.4131L55.9468 23.34L56.5853 22.5704ZM55.8732 23.2645L55.8734 23.2647L56.659 22.646L56.6589 22.6459L55.8732 23.2645ZM56.5863 23.3395L56.5863 23.3394L55.9461 22.5712L55.9461 22.5712L56.5863 23.3395ZM56.5864 22.5712L56.5863 22.5712L55.9461 23.3394L55.9462 23.3395L56.5864 22.5712ZM55.8736 22.6459L55.8734 22.646L56.6591 23.2647L56.6592 23.2645L55.8736 22.6459ZM56.5857 23.34L66.1388 15.4131L65.5003 14.6435L55.9471 22.5704L56.5857 23.34ZM66.1388 15.4131C66.8691 14.8071 66.986 13.7243 66.4021 12.9764L65.6139 13.5918C65.8651 13.9136 65.8143 14.3829 65.5003 14.6435L66.1388 15.4131ZM66.4021 12.9764L65.8205 12.2314L65.0323 12.8468L65.6139 13.5918L66.4021 12.9764ZM65.8205 12.2314C65.2165 11.4578 64.0978 11.3403 63.3463 11.9715L63.9895 12.7373C64.3074 12.4702 64.7768 12.5195 65.0323 12.8468L65.8205 12.2314ZM63.3463 11.9715L55.9446 18.1886L56.5878 18.9543L63.9895 12.7373L63.3463 11.9715ZM48.543 12.7373L55.9446 18.9543L56.5878 18.1886L49.1862 11.9715L48.543 12.7373ZM47.5002 12.8468C47.7557 12.5195 48.2251 12.4702 48.543 12.7373L49.1862 11.9715C48.4346 11.3403 47.316 11.4578 46.712 12.2314L47.5002 12.8468ZM46.9186 13.5918L47.5002 12.8468L46.712 12.2314L46.1304 12.9764L46.9186 13.5918Z" fill="#3C4043"/>
<path fill-rule="evenodd" clip-rule="evenodd" d="M62.1533 18.1566V13.7941C62.1533 13.7941 64.6767 10.7404 65.9385 12.9217C67.2002 15.1029 62.1533 18.1566 62.1533 18.1566Z" fill="white"/>
<path fill-rule="evenodd" clip-rule="evenodd" d="M50.2085 18.1566V13.7941C50.2085 13.7941 47.6851 10.7404 46.4234 12.9217C45.1616 15.1029 50.2085 18.1566 50.2085 18.1566Z" fill="white"/>
<path d="M46.1714 14.1653C46.1714 13.4785 46.7282 12.9216 47.4151 12.9216H48.9277C49.6145 12.9216 50.1714 13.4785 50.1714 14.1653V26.8814H47.4151C46.7282 26.8814 46.1714 26.3246 46.1714 25.6377V14.1653Z" fill="#4285F4" stroke="#3C4043"/>
<path d="M62.2735 14.1653C62.2735 13.4785 62.8303 12.9216 63.5172 12.9216H65.0772C65.7641 12.9216 66.3209 13.4785 66.3209 14.1653V25.6377C66.3209 26.3246 65.7641 26.8814 65.0772 26.8814H62.2735V14.1653Z" fill="#34A853" stroke="#3C4043"/>
<path fill-rule="evenodd" clip-rule="evenodd" d="M46.5235 13.284C46.1059 13.8188 46.1897 14.5949 46.7119 15.0281L56.265 22.9551L56.2652 22.9552L56.2652 22.9552L56.2652 22.9552L56.2654 22.9551L65.8185 15.0281C66.3407 14.5949 66.4245 13.8188 66.0069 13.284L65.4253 12.539C64.9956 11.9885 64.2016 11.9051 63.6668 12.3543L56.2652 18.5713L48.8636 12.3543C48.3288 11.9051 47.5348 11.9885 47.1051 12.539L46.5235 13.284Z" fill="#EA4335"/>
<path d="M46.7119 15.0281L47.0312 14.6434L46.7119 15.0281ZM46.5235 13.284L46.1293 12.9763L46.5235 13.284ZM56.265 22.9551L56.6575 22.6453L56.6248 22.6039L56.5843 22.5703L56.265 22.9551ZM56.2652 22.9552L55.8727 23.2651L56.19 23.6669L56.5842 23.3402L56.2652 22.9552ZM56.2652 22.9552L56.5789 22.5658L56.2607 22.3096L55.9462 22.5702L56.2652 22.9552ZM56.2652 22.9552L55.9516 23.3446L56.3448 23.6614L56.6577 23.2651L56.2652 22.9552ZM56.2654 22.9551L55.9461 22.5703L55.9055 22.6039L55.8729 22.6453L56.2654 22.9551ZM65.8185 15.0281L65.4992 14.6434V14.6434L65.8185 15.0281ZM66.0069 13.284L65.6128 13.5916V13.5916L66.0069 13.284ZM65.4253 12.539L65.8195 12.2313V12.2313L65.4253 12.539ZM63.6668 12.3543L63.3453 11.9714V11.9714L63.6668 12.3543ZM56.2652 18.5713L55.9436 18.9542L56.2652 19.2243L56.5868 18.9542L56.2652 18.5713ZM48.8636 12.3543L49.1851 11.9714V11.9714L48.8636 12.3543ZM47.1051 12.539L47.4992 12.8467H47.4992L47.1051 12.539ZM47.0312 14.6434C46.7171 14.3827 46.6663 13.9134 46.9176 13.5916L46.1293 12.9763C45.5454 13.7242 45.6624 14.807 46.3926 15.4129L47.0312 14.6434ZM56.5843 22.5703L47.0312 14.6434L46.3926 15.4129L55.9458 23.3399L56.5843 22.5703ZM55.8726 23.2649L55.8727 23.2651L56.6576 22.6454L56.6575 22.6453L55.8726 23.2649ZM56.5842 23.3402L56.5842 23.3402L55.9462 22.5702L55.9462 22.5702L56.5842 23.3402ZM56.5789 22.5659L56.5789 22.5658L55.9515 23.3446L55.9516 23.3446L56.5789 22.5659ZM55.8729 22.6453L55.8728 22.6454L56.6577 23.2651L56.6578 23.2649L55.8729 22.6453ZM56.5846 23.3399L66.1378 15.4129L65.4992 14.6434L55.9461 22.5703L56.5846 23.3399ZM66.1378 15.4129C66.868 14.807 66.985 13.7242 66.4011 12.9763L65.6128 13.5916C65.864 13.9134 65.8133 14.3827 65.4992 14.6434L66.1378 15.4129ZM66.4011 12.9763L65.8195 12.2313L65.0312 12.8467L65.6128 13.5916L66.4011 12.9763ZM65.8195 12.2313C65.2155 11.4577 64.0968 11.3402 63.3453 11.9714L63.9884 12.7371C64.3063 12.4701 64.7757 12.5194 65.0312 12.8467L65.8195 12.2313ZM63.3453 11.9714L55.9436 18.1884L56.5868 18.9542L63.9884 12.7371L63.3453 11.9714ZM48.542 12.7371L55.9436 18.9542L56.5868 18.1884L49.1851 11.9714L48.542 12.7371ZM47.4992 12.8467C47.7547 12.5194 48.224 12.4701 48.542 12.7371L49.1851 11.9714C48.4336 11.3402 47.3149 11.4577 46.7109 12.2313L47.4992 12.8467ZM46.9176 13.5916L47.4992 12.8467L46.7109 12.2313L46.1293 12.9763L46.9176 13.5916Z" fill="#3C4043"/>
<path fill-rule="evenodd" clip-rule="evenodd" d="M62.1533 18.1566V13.7941C62.1533 13.7941 64.6767 10.7404 65.9385 12.9217C67.2002 15.1029 62.1533 18.1566 62.1533 18.1566Z" fill="#FBBC04" stroke="#3C4043"/>
<path fill-rule="evenodd" clip-rule="evenodd" d="M50.1714 18.1566V13.7941C50.1714 13.7941 47.6714 10.7404 46.4214 12.9217C45.1714 15.1029 50.1714 18.1566 50.1714 18.1566Z" fill="#C5221F" stroke="#3C4043"/>
<rect x="5.5" y="99" width="36" height="24" rx="12" fill="#3C4043"/>
<path fill-rule="evenodd" clip-rule="evenodd" d="M17.125 118C16.6583 118 16.2708 117.846 15.9625 117.538C15.6542 117.229 15.5 116.842 15.5 116.375V105.625C15.5 105.158 15.6542 104.771 15.9625 104.463C16.2708 104.154 16.6583 104 17.125 104H27.9C28.35 104 28.7292 104.154 29.0375 104.463C29.3458 104.771 29.5 105.158 29.5 105.625V110.275L32.55 107.225V114.775L29.5 111.725V116.375C29.5 116.842 29.3458 117.229 29.0375 117.538C28.7292 117.846 28.35 118 27.9 118H17.125Z" fill="white"/>
<path fill-rule="evenodd" clip-rule="evenodd" d="M14.5 88.575V73.125C14.5 72.6583 14.6542 72.2708 14.9625 71.9625C15.2708 71.6542 15.6583 71.5 16.125 71.5H30.875C31.3417 71.5 31.7292 71.6542 32.0375 71.9625C32.3458 72.2708 32.5 72.6583 32.5 73.125V83.875C32.5 84.3417 32.3458 84.7292 32.0375 85.0375C31.7292 85.3458 31.3417 85.5 30.875 85.5H17.575L14.5 88.575ZM16.875 84.5H30.875C31.0583 84.5 31.2083 84.4417 31.325 84.325C31.4417 84.2083 31.5 84.0583 31.5 83.875V73.125C31.5 72.9417 31.4417 72.7917 31.325 72.675C31.2083 72.5583 31.0583 72.5 30.875 72.5H16.125C15.9417 72.5 15.7917 72.5583 15.675 72.675C15.5583 72.7917 15.5 72.9417 15.5 73.125V83.875V84.325V84.5V85.875L16.875 84.5Z" fill="#BDC1C6"/>
<path fill-rule="evenodd" clip-rule="evenodd" d="M14.9625 56.0375C15.2708 56.3458 15.6583 56.5 16.125 56.5H30.875C31.3417 56.5 31.7292 56.3458 32.0375 56.0375C32.3458 55.7292 32.5 55.3417 32.5 54.875V44.125C32.5 43.6583 32.3458 43.2708 32.0375 42.9625C31.7292 42.6542 31.3417 42.5 30.875 42.5H16.125C15.6583 42.5 15.2708 42.6542 14.9625 42.9625C14.6542 43.2708 14.5 43.6583 14.5 44.125V54.875C14.5 55.3417 14.6542 55.7292 14.9625 56.0375ZM15.5 44.375L23.5 49.625L31.5 44.375V54.875C31.5 55.0583 31.4417 55.2083 31.325 55.325C31.2083 55.4417 31.0583 55.5 30.875 55.5H16.125H15.5V55.325V54.875V44.375ZM23.5 48.5L31.2 43.5H15.8L23.5 48.5Z" fill="#BDC1C6"/>
<rect x="57.1714" y="68" width="49.0053" height="16" fill="white" stroke="#BDC1C6" stroke-linejoin="round"/>
<path d="M65.6531 76H97.8313" stroke="#4285F4" stroke-linecap="round"/>
<rect x="117.171" y="68" width="49.0053" height="16" fill="white" stroke="#BDC1C6" stroke-linejoin="round"/>
<path d="M125.653 76H157.831" stroke="#4285F4" stroke-linecap="round"/>
<rect x="57.1714" y="50" width="39" height="8" fill="#3C4043"/>
<rect x="58.2515" y="96.6967" width="9.1531" height="9.80334" rx="0.5" stroke="#1A73E8"/>
<ellipse cx="64.8081" cy="103.791" rx="1.53009" ry="1.62359" fill="#1A73E8"/>
<rect x="58.1138" y="97" width="9.4241" height="2.19611" fill="#1A73E8"/>
<rect x="59.4156" y="95" width="1.15983" height="2.00744" fill="#1A73E8"/>
<rect x="65.0698" y="95" width="1.15983" height="2.00744" fill="#1A73E8"/>
<path d="M78.4957 100.5H125.847" stroke="#3C4043" stroke-linecap="round" stroke-linejoin="round"/>
<rect x="58.2515" y="116.697" width="9.1531" height="9.80334" rx="0.5" stroke="#1A73E8"/>
<ellipse cx="64.8081" cy="123.791" rx="1.53009" ry="1.62359" fill="#1A73E8"/>
<rect x="58.1138" y="117" width="9.4241" height="2.19611" fill="#1A73E8"/>
<rect x="59.4156" y="115" width="1.15983" height="2.00744" fill="#1A73E8"/>
<rect x="65.0698" y="115" width="1.15983" height="2.00744" fill="#1A73E8"/>
<path d="M78.0223 119.2H125.374" stroke="#3C4043" stroke-linecap="round" stroke-linejoin="round"/>
<rect x="58.2515" y="136.697" width="9.1531" height="9.80334" rx="0.5" stroke="#1A73E8"/>
<ellipse cx="64.8081" cy="143.791" rx="1.53009" ry="1.62359" fill="#1A73E8"/>
<rect x="58.1138" y="137" width="9.4241" height="2.19611" fill="#1A73E8"/>
<rect x="59.4156" y="135" width="1.15983" height="2.00744" fill="#1A73E8"/>
<rect x="65.0698" y="135" width="1.15983" height="2.00744" fill="#1A73E8"/>
<path d="M78.0223 140.2H125.374" stroke="#3C4043" stroke-linecap="round" stroke-linejoin="round"/>
<rect x="254" y="46" width="49" height="16" fill="#4285F4" stroke="#4285F4" stroke-linejoin="round"/>
<path d="M262.481 54H294.655" stroke="white" stroke-linecap="round"/>
<path d="M189.496 54.5H236.847" stroke="#3C4043" stroke-linecap="round" stroke-linejoin="round"/>
<path d="M189.496 84.5H236.847" stroke="#3C4043" stroke-linecap="round" stroke-linejoin="round"/>
<path d="M189.496 94.5H236.847" stroke="#3C4043" stroke-linecap="round" stroke-linejoin="round"/>
<path d="M189.496 104.5H236.847" stroke="#3C4043" stroke-linecap="round" stroke-linejoin="round"/>
<path d="M189.638 122.5H257.705" stroke="#3C4043" stroke-linecap="round" stroke-linejoin="round"/>
<path d="M189.638 131.5H257.705" stroke="#3C4043" stroke-linecap="round" stroke-linejoin="round"/>
<path d="M189.638 140.5H257.705" stroke="#3C4043" stroke-linecap="round" stroke-linejoin="round"/>
<path d="M177.671 38.5V158.5" stroke="#979797" stroke-linecap="square"/>
<path d="M288.195 84.6049H302.796" stroke="#3C4043" stroke-linecap="round"/>
<ellipse cx="7.17784" cy="7.2769" rx="7.17784" ry="7.2769" transform="matrix(-1 0 0 1 284.59 77)" fill="white" stroke="#3C4043"/>
<path fill-rule="evenodd" clip-rule="evenodd" d="M273.328 84.3007C273.328 84.3007 272.728 83.5581 273.203 82.7601C272.197 81.7958 272.796 80.4435 273.836 80.3549C273.429 78.9916 274.933 77.9275 276.177 78.6036C277.082 77.3844 279.355 77.6948 279.683 79.1578C281.537 79.1024 282.6 81.6295 280.847 82.7157L275.374 83.4029C275.374 83.3918 273.61 83.5692 273.328 84.3007Z" fill="#AC6D44"/>
<path fill-rule="evenodd" clip-rule="evenodd" d="M273.328 84.3007C273.328 84.3007 272.728 83.5581 273.203 82.7601C272.197 81.7958 272.796 80.4435 273.836 80.3549C273.429 78.9916 274.933 77.9275 276.177 78.6036C277.082 77.3844 279.355 77.6948 279.683 79.1578C281.537 79.1024 282.6 81.6295 280.847 82.7157L275.374 83.4029C275.374 83.3918 273.61 83.5692 273.328 84.3007Z" stroke="#3C4043" stroke-linecap="round" stroke-linejoin="round"/>
<path fill-rule="evenodd" clip-rule="evenodd" d="M278.51 90.413C278.51 90.413 277.928 89.2017 277.643 88.0367C277.643 88.0367 276.422 88.6365 275.555 88.3481C275.555 88.3481 275.179 87.8175 275.053 86.1449C274.985 85.3028 275.099 84.0224 275.327 83.238C275.578 82.3498 276.434 81.7499 277.837 81.9691C279.742 82.2575 280.62 83.3187 280.266 85.1529C279.856 87.333 280.072 87.333 280.734 88.7403C280.723 88.7288 280.255 90.2515 278.51 90.413Z" fill="#DD8861"/>
<path fill-rule="evenodd" clip-rule="evenodd" d="M278.51 90.413C278.51 90.413 277.928 89.2017 277.643 88.0367C277.643 88.0367 276.422 88.6365 275.555 88.3481C275.555 88.3481 275.179 87.8175 275.053 86.1449C274.985 85.3028 275.099 84.0224 275.327 83.238C275.578 82.3498 276.434 81.7499 277.837 81.9691C279.742 82.2575 280.62 83.3187 280.266 85.1529C279.856 87.333 280.072 87.333 280.734 88.7403C280.723 88.7288 280.255 90.2515 278.51 90.413Z" stroke="#3C4043" stroke-linecap="round" stroke-linejoin="round"/>
<path d="M278.722 85.5116C278.722 85.5116 278.867 85.2878 279.071 85.3232C279.275 85.3585 279.41 85.6059 279.391 85.8768C279.381 86.1477 279.168 86.5245 278.926 86.6777" stroke="#3C4043" stroke-linecap="round" stroke-linejoin="round"/>
<path fill-rule="evenodd" clip-rule="evenodd" d="M277.874 88.5453C277.874 88.5453 278.613 88.2628 278.722 87.187C278.722 87.187 278.359 87.8281 277.716 88.0672C277.716 88.0672 277.753 88.1867 277.777 88.2845C277.825 88.404 277.874 88.5453 277.874 88.5453Z" fill="#3C4043"/>
<path fill-rule="evenodd" clip-rule="evenodd" d="M277.874 88.5453C277.874 88.5453 278.613 88.2628 278.722 87.187C278.722 87.187 278.359 87.8281 277.716 88.0672C277.716 88.0672 277.753 88.1867 277.777 88.2845C277.825 88.404 277.874 88.5453 277.874 88.5453Z" stroke="#3C4043" stroke-linecap="round" stroke-linejoin="round"/>
<path fill-rule="evenodd" clip-rule="evenodd" d="M279.833 87.3568C279.833 87.3568 279.913 86.4485 280.458 84.9386C281.004 83.4287 280.572 82.8035 280.572 82.8035C280.572 82.8035 277.482 81.5649 275.369 82.8388C275.369 82.8388 278.322 86.8378 279.833 87.3568Z" fill="white"/>
<path fill-rule="evenodd" clip-rule="evenodd" d="M275.369 82.8388C275.369 82.8388 278.322 86.8378 279.833 87.3568C279.833 87.3568 279.913 86.4485 280.458 84.9386C281.004 83.4287 280.572 82.8035 280.572 82.8035C280.572 82.8035 277.482 81.5649 275.369 82.8388Z" stroke="#3C4043" stroke-linecap="round" stroke-linejoin="round"/>
<path fill-rule="evenodd" clip-rule="evenodd" d="M275.704 83.1094L275.033 83.282C275.033 83.282 275.109 82.9022 275.315 82.6029L275.704 83.1094Z" fill="white"/>
<path fill-rule="evenodd" clip-rule="evenodd" d="M275.704 83.1094L275.033 83.282C275.033 83.282 275.109 82.9022 275.315 82.6029L275.704 83.1094Z" stroke="#3C4043" stroke-linecap="round" stroke-linejoin="round"/>
<path fill-rule="evenodd" clip-rule="evenodd" d="M278.79 82.2484C278.79 82.2484 279.94 81.1106 279.063 80.147C278.103 79.0904 276.491 79.5548 276.147 80.5649C274.796 79.7638 273.231 81.0061 274.013 82.4806C273.528 83.1307 273.397 85.3019 275.057 85.9985C275.057 85.9985 275.106 85.1722 275.104 85.2089C275.139 84.3962 275.282 83.7578 275.353 83.4443C275.4 83.2702 275.507 83.0495 275.661 82.7708C275.661 82.7708 276.195 82.4225 277.202 82.2716C277.925 82.1671 278.79 82.2484 278.79 82.2484Z" fill="#AC6D44"/>
<path fill-rule="evenodd" clip-rule="evenodd" d="M278.79 82.2484C278.79 82.2484 279.94 81.1106 279.063 80.147C278.103 79.0904 276.491 79.5548 276.147 80.5649C274.796 79.7638 273.231 81.0061 274.013 82.4806C273.528 83.1307 273.397 85.3019 275.057 85.9985C275.057 85.9985 275.106 85.1722 275.104 85.2089C275.139 84.3962 275.282 83.7578 275.353 83.4443C275.4 83.2702 275.507 83.0495 275.661 82.7708C275.661 82.7708 276.195 82.4225 277.202 82.2716C277.925 82.1671 278.79 82.2484 278.79 82.2484Z" stroke="#3C4043" stroke-linecap="round" stroke-linejoin="round"/>
<path d="M289.013 103.295H303.784" stroke="#3C4043" stroke-linecap="round"/>
<ellipse cx="7.26138" cy="7.3616" rx="7.26138" ry="7.3616" transform="matrix(-1 0 0 1 284.758 95.6014)" fill="white" stroke="#3C4043"/>
<path fill-rule="evenodd" clip-rule="evenodd" d="M278.135 107.968C278.135 107.968 277.512 106.645 277.206 105.372C277.206 105.372 275.899 106.027 274.97 105.712C274.97 105.712 274.567 105.132 274.433 103.305C274.36 102.385 274.482 100.986 274.726 100.129C274.995 99.1585 275.911 98.5031 277.414 98.7426C279.455 99.0577 280.396 100.217 280.017 102.221C279.577 104.603 279.809 104.603 280.518 106.141C280.506 106.128 280.005 107.792 278.135 107.968Z" fill="#933222"/>
<path fill-rule="evenodd" clip-rule="evenodd" d="M278.135 107.968C278.135 107.968 277.512 106.645 277.206 105.372C277.206 105.372 275.899 106.027 274.97 105.712C274.97 105.712 274.567 105.132 274.433 103.305C274.36 102.385 274.482 100.986 274.726 100.129C274.995 99.1585 275.911 98.5031 277.414 98.7426C279.455 99.0577 280.396 100.217 280.017 102.221C279.577 104.603 279.809 104.603 280.518 106.141C280.506 106.128 280.005 107.792 278.135 107.968Z" stroke="#3C4043" stroke-linecap="round" stroke-linejoin="round"/>
<path fill-rule="evenodd" clip-rule="evenodd" d="M277.285 105.907C277.285 105.907 278.033 105.55 278.143 104.189C278.143 104.189 277.775 105 277.126 105.302C277.126 105.302 277.162 105.454 277.187 105.577C277.236 105.715 277.285 105.907 277.285 105.907Z" fill="#3C4043"/>
<path fill-rule="evenodd" clip-rule="evenodd" d="M277.285 105.907C277.285 105.907 278.033 105.55 278.143 104.189C278.143 104.189 277.775 105 277.126 105.302C277.126 105.302 277.162 105.454 277.187 105.577C277.236 105.715 277.285 105.907 277.285 105.907Z" stroke="#3C4043" stroke-linecap="round" stroke-linejoin="round"/>
<path fill-rule="evenodd" clip-rule="evenodd" d="M279.645 103.846C279.645 103.846 279.032 103.152 278.909 102.812C278.811 102.572 278.419 102.37 278.211 102.295C278.137 102.269 278.064 102.295 278.039 102.37C277.941 102.572 277.77 102.963 277.721 103.114C277.721 103.114 277.574 101.954 277.512 101.803C277.451 101.651 277.132 101.575 277.01 101.046C276.887 100.516 276.863 100.1 276.863 100.1C276.863 100.1 276.642 100.125 276.091 100.075C275.551 100.012 274.755 99.9358 274.559 100.188C274.559 100.188 274.412 99.9231 274.412 99.4817C274.412 98.9898 275.027 98.006 276.755 98.006C278.483 98.006 280.796 98.1322 280.49 101.349C280.37 102.61 279.853 102.484 279.645 103.846Z" fill="#3C4043"/>
<path fill-rule="evenodd" clip-rule="evenodd" d="M279.645 103.846C279.645 103.846 279.032 103.152 278.909 102.812C278.811 102.572 278.419 102.37 278.211 102.295C278.137 102.269 278.064 102.295 278.039 102.37C277.941 102.572 277.77 102.963 277.721 103.114C277.721 103.114 277.574 101.954 277.512 101.803C277.451 101.651 277.132 101.575 277.01 101.046C276.887 100.516 276.863 100.1 276.863 100.1C276.863 100.1 276.642 100.125 276.091 100.075C275.551 100.012 274.755 99.9358 274.559 100.188C274.559 100.188 274.412 99.9231 274.412 99.4817C274.412 98.9898 275.027 98.006 276.755 98.006C278.483 98.006 280.796 98.1322 280.49 101.349C280.37 102.61 279.853 102.484 279.645 103.846Z" stroke="#3C4043" stroke-linecap="round" stroke-linejoin="round"/>
<path fill-rule="evenodd" clip-rule="evenodd" d="M278.143 102.371C278.143 102.371 278.364 102.088 278.673 102.133C278.982 102.178 279.187 102.491 279.158 102.833C279.143 103.176 278.82 103.652 278.452 103.846" fill="#933222"/>
<path d="M278.143 102.371C278.143 102.371 278.364 102.088 278.673 102.133C278.982 102.178 279.187 102.491 279.158 102.833C279.143 103.176 278.82 103.652 278.452 103.846" stroke="#3C4043" stroke-linecap="round" stroke-linejoin="round"/>
<path d="M289.013 122.066H303.784" stroke="#3C4043" stroke-linecap="round"/>
<ellipse cx="277.433" cy="121.734" rx="7.26138" ry="7.3616" fill="white" stroke="#3C4043"/>
<path fill-rule="evenodd" clip-rule="evenodd" d="M281.217 121.328C281.339 121.69 281.705 122.293 281.705 122.803C281.705 123.808 281.193 124.264 280.717 124.331C280.521 124.358 280.155 124.237 280.106 123.808C280.058 123.379 280.009 119.182 280.009 119.182H280.912C280.936 119.195 281.022 120.697 281.217 121.328Z" fill="#F09071"/>
<path fill-rule="evenodd" clip-rule="evenodd" d="M281.217 121.328C281.339 121.69 281.705 122.293 281.705 122.803C281.705 123.808 281.193 124.264 280.717 124.331C280.521 124.358 280.155 124.237 280.106 123.808C280.058 123.379 280.009 119.182 280.009 119.182H280.912C280.936 119.195 281.022 120.697 281.217 121.328Z" stroke="#3C4043" stroke-linecap="round" stroke-linejoin="round"/>
<path fill-rule="evenodd" clip-rule="evenodd" d="M276.55 127.083C276.55 127.083 277.243 125.662 277.582 124.294C277.582 124.294 279.035 124.998 280.066 124.66C280.066 124.66 280.514 124.037 280.664 122.074C280.745 121.086 280.609 119.584 280.338 118.663C280.039 117.621 279.021 116.917 277.351 117.174C275.084 117.513 274.039 118.758 274.459 120.91C274.948 123.469 274.69 123.469 273.903 125.12C273.916 125.12 274.473 126.907 276.55 127.083Z" fill="#F3D4BD"/>
<path fill-rule="evenodd" clip-rule="evenodd" d="M276.55 127.083C276.55 127.083 277.243 125.662 277.582 124.294C277.582 124.294 279.035 124.998 280.066 124.66C280.066 124.66 280.514 124.037 280.664 122.074C280.745 121.086 280.609 119.584 280.338 118.663C280.039 117.621 279.021 116.917 277.351 117.174C275.084 117.513 274.039 118.758 274.459 120.91C274.948 123.469 274.69 123.469 273.903 125.12C273.916 125.12 274.473 126.907 276.55 127.083Z" stroke="#3C4043" stroke-linecap="round" stroke-linejoin="round"/>
<path d="M275.938 120.799C275.938 120.799 275.791 120.516 275.585 120.561C275.379 120.606 275.242 120.918 275.262 121.261C275.271 121.603 275.487 122.08 275.732 122.274" stroke="#3C4043" stroke-linecap="round" stroke-linejoin="round"/>
<path fill-rule="evenodd" clip-rule="evenodd" d="M277.136 125.022C277.136 125.022 276.388 124.665 276.277 123.304C276.277 123.304 276.645 124.115 277.295 124.417C277.295 124.417 277.258 124.568 277.234 124.692C277.185 124.843 277.136 125.022 277.136 125.022Z" fill="#3C4043"/>
<path fill-rule="evenodd" clip-rule="evenodd" d="M277.136 125.022C277.136 125.022 276.388 124.665 276.277 123.304C276.277 123.304 276.645 124.115 277.295 124.417C277.295 124.417 277.258 124.568 277.234 124.692C277.185 124.843 277.136 125.022 277.136 125.022Z" stroke="#3C4043" stroke-linecap="round" stroke-linejoin="round"/>
<path fill-rule="evenodd" clip-rule="evenodd" d="M277.36 120.906C277.36 120.906 276.994 120.878 276.745 120.755C276.745 120.755 276.627 121.179 276.823 121.617C277.059 122.151 278.171 124.353 276.732 125.051C276.732 125.051 275.437 125.789 274.77 124.627C274.77 124.627 274.678 125.146 274.862 125.365C274.862 125.365 274.129 125.188 273.71 124.832C273.475 124.627 273.03 124.257 273.318 123.3C273.436 122.889 273.92 121.453 273.92 121.453C273.92 121.453 273.554 121.603 273.41 121.617C273.41 121.617 273.344 121.029 273.344 120.824C273.357 120.085 273.54 118.963 274.417 118.088C274.835 117.677 275.529 117.294 276.156 117.198C276.156 117.198 276.601 116.528 277.647 116.446C278.576 116.378 279.034 116.09 279.034 116.09C279.034 116.09 279.296 116.569 279.282 116.843C279.282 116.843 281.715 117.007 281.323 119.538C281.271 119.866 281.166 120.304 281.035 120.687C281.035 120.687 280.277 120.509 279.832 120.304C279.243 120.03 278.328 119.497 277.857 118.717C277.87 118.772 277.974 120.331 277.36 120.906Z" fill="#F09071"/>
<path fill-rule="evenodd" clip-rule="evenodd" d="M277.36 120.906C277.36 120.906 276.994 120.878 276.745 120.755C276.745 120.755 276.627 121.179 276.823 121.617C277.059 122.151 278.171 124.353 276.732 125.051C276.732 125.051 275.437 125.789 274.77 124.627C274.77 124.627 274.678 125.146 274.862 125.365C274.862 125.365 274.129 125.188 273.71 124.832C273.475 124.627 273.03 124.257 273.318 123.3C273.436 122.889 273.92 121.453 273.92 121.453C273.92 121.453 273.554 121.603 273.41 121.617C273.41 121.617 273.344 121.029 273.344 120.824C273.357 120.085 273.54 118.963 274.417 118.088C274.835 117.677 275.529 117.294 276.156 117.198C276.156 117.198 276.601 116.528 277.647 116.446C278.576 116.378 279.034 116.09 279.034 116.09C279.034 116.09 279.296 116.569 279.282 116.843C279.282 116.843 281.715 117.007 281.323 119.538C281.271 119.866 281.166 120.304 281.035 120.687C281.035 120.687 280.277 120.509 279.832 120.304C279.243 120.03 278.328 119.497 277.857 118.717C277.87 118.772 277.974 120.331 277.36 120.906Z" stroke="#3C4043" stroke-linecap="round" stroke-linejoin="round"/>
<mask id="path-88-outside-1_4331_6684" maskUnits="userSpaceOnUse" x="81.0376" y="80.0845" width="44.5477" height="44.5477" fill="black">
<rect fill="white" x="81.0376" y="80.0845" width="44.5477" height="44.5477"/>
<path fill-rule="evenodd" clip-rule="evenodd" d="M92.9361 90.5471C92.2044 90.3649 91.542 91.0273 91.7242 91.759L95.7814 108.059C95.9692 108.814 96.9089 109.074 97.4589 108.524L102.139 103.844L112.589 114.294C113.37 115.075 114.636 115.075 115.417 114.294C116.198 113.513 116.198 112.247 115.417 111.466L104.968 101.016L109.702 96.2817C110.251 95.7318 109.991 94.7921 109.236 94.6042L92.9361 90.5471Z"/>
</mask>
<path fill-rule="evenodd" clip-rule="evenodd" d="M92.9361 90.5471C92.2044 90.3649 91.542 91.0273 91.7242 91.759L95.7814 108.059C95.9692 108.814 96.9089 109.074 97.4589 108.524L102.139 103.844L112.589 114.294C113.37 115.075 114.636 115.075 115.417 114.294C116.198 113.513 116.198 112.247 115.417 111.466L104.968 101.016L109.702 96.2817C110.251 95.7318 109.991 94.7921 109.236 94.6042L92.9361 90.5471Z" fill="#FBBC04"/>
<path d="M91.7242 91.759L93.665 91.2759L93.665 91.2759L91.7242 91.759ZM92.9361 90.5471L93.4192 88.6063L93.4192 88.6063L92.9361 90.5471ZM95.7814 108.059L97.7221 107.576L97.7221 107.576L95.7814 108.059ZM97.4589 108.524L96.0446 107.11L97.4589 108.524ZM102.139 103.844L103.553 102.43L102.139 101.016L100.725 102.43L102.139 103.844ZM104.968 101.016L103.553 99.6015L102.139 101.016L103.553 102.43L104.968 101.016ZM109.236 94.6042L108.753 96.545H108.753L109.236 94.6042ZM93.665 91.2759C93.8471 92.0076 93.1847 92.67 92.453 92.4878L93.4192 88.6063C91.2241 88.0599 89.237 90.047 89.7834 92.2421L93.665 91.2759ZM97.7221 107.576L93.665 91.2759L89.7834 92.2421L93.8406 108.542L97.7221 107.576ZM96.0446 107.11C96.5946 106.56 97.5343 106.821 97.7221 107.576L93.8406 108.542C94.4042 110.806 97.2232 111.588 98.8731 109.939L96.0446 107.11ZM100.725 102.43L96.0446 107.11L98.8731 109.939L103.553 105.258L100.725 102.43ZM114.003 112.88L103.553 102.43L100.725 105.258L111.175 115.708L114.003 112.88ZM114.003 112.88L111.175 115.708C112.737 117.27 115.27 117.27 116.832 115.708L114.003 112.88ZM114.003 112.88L114.003 112.88L116.832 115.708C118.394 114.146 118.394 111.613 116.832 110.051L114.003 112.88ZM103.553 102.43L114.003 112.88L116.832 110.051L106.382 99.6015L103.553 102.43ZM108.287 94.8675L103.553 99.6015L106.382 102.43L111.116 97.696L108.287 94.8675ZM108.753 96.545C107.998 96.3572 107.737 95.4175 108.287 94.8675L111.116 97.696C112.766 96.0461 111.983 93.227 109.719 92.6635L108.753 96.545ZM92.453 92.4878L108.753 96.545L109.719 92.6635L93.4192 88.6063L92.453 92.4878Z" fill="white" mask="url(#path-88-outside-1_4331_6684)"/>
<path d="M15.825 14.0782H31.825" stroke="#BDC1C6" stroke-linecap="round" stroke-linejoin="round"/>
<path d="M15.825 18.5832H31.825" stroke="#BDC1C6" stroke-linecap="round" stroke-linejoin="round"/>
<path d="M15.825 23.0883H31.825" stroke="#BDC1C6" stroke-linecap="round" stroke-linejoin="round"/>
<rect x="80.5" y="6" width="162" height="27" rx="13.5" stroke="#BDC1C6"/>
<path d="M105 22.5L110 27.5" stroke="#BDC1C6" stroke-linecap="square"/>
<circle cx="100.5" cy="18" r="6.5" stroke="#BDC1C6"/>
<path d="M116 19.5H171" stroke="#BDC1C6" stroke-linecap="round" stroke-linejoin="round"/>
</g>
<defs>
<clipPath id="clip0_4331_6684">
<rect width="323" height="168" fill="white"/>
</clipPath>
</defs>
</svg>
